<?xml version="1.0" encoding="UTF-8" standalone="no"?>
<svg version="1.0" width="570.000000pt" height="608.000000pt" viewBox="0 0 570.000000 608.000000" preserveAspectRatio="xMidYMid meet" id="svg9505" sodipodi:docname="first_traffic_light_FSM.svg" inkscape:version="1.1 (c68e22c387, 2021-05-23)"
   xmlns:inkscape="http://www.inkscape.org/namespaces/inkscape"
   xmlns:sodipodi="http://sodipodi.sourceforge.net/DTD/sodipodi-0.dtd"
   xmlns="http://www.w3.org/2000/svg"
   xmlns:svg="http://www.w3.org/2000/svg">
   <defs id="defs9509" />
   <sodipodi:namedview id="namedview9507" pagecolor="#ffffff" bordercolor="#666666" borderopacity="1.0" inkscape:pageshadow="2" inkscape:pageopacity="0.0" inkscape:pagecheckerboard="0" inkscape:document-units="pt" showgrid="false" inkscape:zoom="0.98930921" inkscape:cx="569.58936" inkscape:cy="461.43308" inkscape:window-width="1920" inkscape:window-height="991" inkscape:window-x="-9" inkscape:window-y="-9" inkscape:window-maximized="1" inkscape:current-layer="svg9505" />
   <g transform="translate(0.000000,608.000000) scale(0.100000,-0.100000)" fill="#000000" stroke="none" id="g9503">
      <path d="M695 5771 c-36 -15 -57 -47 -53 -82 3 -30 8 -35 48 -49 39 -14 45 -19 45 -44 0 -20 -9 -35 -28 -50 -26 -19 -30 -19 -55 -5 -17 9 -29 26 -32 44 l-6 30 -7 -30 c-5 -16 -11 -39 -14 -50 -5 -17 -4 -18 10 -7 12 10 21 11 36 3 30 -16 55 -13 85 10 61 48 54 103 -15 128 -54 20 -63 49 -23 80 42 33 82 14 85 -39 1 -20 4 -17 14 15 7 22 10 42 7 45 -2 3 -7 0 -9 -7 -3 -8 -11 -7 -31 3 -31 16 -30 16 -57 5z" id="path9491" />
      <path d="M981 5451 c39 -45 45 -49 56 -35 11 15 238 -114 1928 -1090 1054 -609 1920 -1106 1925 -1104 5 2 -854 501 -1908 1109 -1635 944 -1917 1110 -1915 1127 2 17 -4 22 -35 27 -20 4 -50 9 -66 12 l-29 5 44 -51z" id="path9493" />
      <path d="M680 3135 c0 -2245 0 -2265 -20 -2265 -19 0 -19 0 0 -46 11 -25 20 -52 20 -60 0 -8 5 -14 10 -14 6 0 10 6 10 14 0 8 9 35 20 60 19 46 19 46 0 46 -20 0 -20 20 -20 2265 0 1503 -3 2265 -10 2265 -7 0 -10 -762 -10 -2265z" id="path9495" />
      <path d="M5103 3183 c23 -6 24 -2 -24 -185 -7 -26 -16 -38 -32 -41 -12 -2 5 -4 38 -4 33 0 50 2 38 4 -27 5 -26 2 -12 59 11 41 14 44 45 44 20 0 34 -5 35 -12 1 -7 5 -2 9 12 14 43 11 51 -10 30 -11 -11 -30 -20 -41 -20 -19 0 -21 4 -14 37 11 62 21 73 65 73 27 0 45 -7 60 -22 l20 -22 0 27 0 27 -97 -1 c-54 -1 -90 -3 -80 -6z" id="path9497" />
      <path d="M4860 2910 c-14 -4 -44 -8 -67 -9 -44 -1 -52 -8 -31 -29 6 -6 10 -14 7 -16 -2 -2 -816 -473 -1809 -1046 -2104 -1215 -1993 -1150 -1987 -1156 3 -3 859 488 1903 1091 1760 1017 1899 1095 1912 1078 13 -17 14 -17 24 1 6 10 26 36 45 57 20 22 34 39 32 38 -2 -1 -15 -5 -29 -9z" id="path9499" />
      <path d="M613 603 c21 -6 21 -3 -3 -108 -27 -111 -28 -113 -53 -118 -12 -2 3 -4 33 -4 30 -1 47 1 37 4 -17 5 -17 6 3 83 6 22 12 25 58 28 57 3 58 3 41 -63 -8 -32 -17 -45 -33 -48 -11 -2 4 -4 34 -4 30 -1 47 1 38 4 -23 6 -22 9 5 118 19 73 28 92 48 102 22 12 19 13 -31 12 -30 -1 -47 -3 -37 -6 20 -5 20 -3 6 -59 l-11 -44 -55 0 c-47 0 -54 2 -49 18 3 9 8 30 12 45 4 16 16 32 28 37 15 6 6 9 -34 8 -30 0 -47 -2 -37 -5z" id="path9501" />
   </g>
   <rect style="fill:#ffffff;fill-opacity:0;stroke:#ffffff;stroke-width:11.6483;stroke-opacity:1" id="rect9533" width="571.02087" height="610.92072" x="-0.76745474" y="-0.48768026" />
</svg>
