<?xml version="1.0" encoding="UTF-8" standalone="no"?>
<svg version="1.0" width="1994.000000pt" height="1194.000000pt" viewBox="0 0 1994.000000 1194.000000" preserveAspectRatio="xMidYMid meet" id="svg433" sodipodi:docname="simple_traffic_light.svg" inkscape:version="1.1 (c68e22c387, 2021-05-23)"
   xmlns:inkscape="http://www.inkscape.org/namespaces/inkscape"
   xmlns:sodipodi="http://sodipodi.sourceforge.net/DTD/sodipodi-0.dtd"
   xmlns="http://www.w3.org/2000/svg"
   xmlns:svg="http://www.w3.org/2000/svg">
   <defs id="defs437">
      <pattern id="EMFhbasepattern" patternUnits="userSpaceOnUse" width="6" height="6" x="0" y="0" />
      <pattern id="EMFhbasepattern-7" patternUnits="userSpaceOnUse" width="6" height="6" x="0" y="0" />
      <pattern id="EMFhbasepattern-75" patternUnits="userSpaceOnUse" width="6" height="6" x="0" y="0" />
   </defs>
   <sodipodi:namedview id="namedview435" pagecolor="#ffffff" bordercolor="#666666" borderopacity="1.0" inkscape:pageshadow="2" inkscape:pageopacity="0.0" inkscape:pagecheckerboard="0" inkscape:document-units="pt" showgrid="false" inkscape:zoom="0.33298559" inkscape:cx="1237.2908" inkscape:cy="701.23155" inkscape:window-width="1920" inkscape:window-height="991" inkscape:window-x="-9" inkscape:window-y="-9" inkscape:window-maximized="1" inkscape:current-layer="g431" />
   <g transform="translate(0.000000,1194.000000) scale(0.100000,-0.100000)" fill="#000000" stroke="none" id="g431">
      <rect style="fill:#a0deff;fill-opacity:1;stroke:#808080;stroke-width:13.2575;stroke-opacity:1" id="rect2283-4" width="19942.232" height="7547.7378" x="-57.020916" y="-9742.8584" transform="scale(1,-1)" />
      <ellipse style="fill:#ff7f27;fill-opacity:1;stroke:#ff7f27;stroke-width:4.06438;stroke-miterlimit:4;stroke-dasharray:none;stroke-opacity:1" id="path9843-6-41-8-4" cx="-18773.092" cy="-1960.1753" transform="matrix(-0.88696809,-0.46183072,-0.47685982,0.87897936,0,0)" rx="183.78183" ry="35.38406" />
      <ellipse style="fill:#ff7f27;fill-opacity:1;stroke:#ff7f27;stroke-width:4.06438;stroke-miterlimit:4;stroke-dasharray:none;stroke-opacity:1" id="path9843-6-41-86" cx="-812.55029" cy="4246.4092" transform="matrix(-0.88877329,0.45834707,0.44315396,0.89644552,0,0)" rx="183.78183" ry="35.38406" />
      <ellipse style="fill:#ff7f27;fill-opacity:1;stroke:#ff7f27;stroke-width:4.06438;stroke-miterlimit:4;stroke-dasharray:none;stroke-opacity:1" id="path9843-6-41-8" cx="-4647.7139" cy="3223.801" transform="matrix(-0.88696809,-0.46183072,-0.47685982,0.87897936,0,0)" rx="183.78183" ry="35.38406" />
      <ellipse style="fill:#ff7f27;fill-opacity:1;stroke:#ff7f27;stroke-width:4.06438;stroke-miterlimit:4;stroke-dasharray:none;stroke-opacity:1" id="path9843-6-41" cx="-11995.488" cy="15603.209" transform="matrix(-0.88877329,0.45834707,0.44315396,0.89644552,0,0)" rx="183.78183" ry="35.38406" />
      <ellipse style="fill:#ffffff;fill-opacity:1;stroke:#ffffff;stroke-width:4.54583;stroke-miterlimit:4;stroke-dasharray:none;stroke-opacity:1" id="path9843-6-4" cx="8733.6787" cy="-13414.351" transform="matrix(0.85551262,-0.51778196,-0.51778196,-0.85551262,0,0)" rx="206.84628" ry="39.327774" />
      <ellipse style="fill:#ffffff;fill-opacity:1;stroke:#ffffff;stroke-width:4.54583;stroke-miterlimit:4;stroke-dasharray:none;stroke-opacity:1" id="path9843-6-8" cx="-16733.301" cy="-418.46942" transform="matrix(-0.84908881,-0.52825013,-0.52825013,0.84908881,0,0)" rx="206.84628" ry="39.327774" />
      <ellipse style="fill:#ffffff;fill-opacity:1;stroke:#ffffff;stroke-width:4.54583;stroke-miterlimit:4;stroke-dasharray:none;stroke-opacity:1" id="path9843-6" cx="-6708.9312" cy="-121.0493" transform="matrix(-0.84908881,-0.52825013,-0.52825013,0.84908881,0,0)" rx="206.84628" ry="39.327774" />
      <ellipse style="fill:#ffffff;fill-opacity:1;stroke:#ffffff;stroke-width:4.54583;stroke-miterlimit:4;stroke-dasharray:none;stroke-opacity:1" id="path9843" cx="2798.5996" cy="-7066.4453" transform="matrix(0.8865864,-0.46256302,-0.46256302,-0.8865864,0,0)" rx="206.84628" ry="39.327774" />
      <rect style="fill:#ffffff;fill-opacity:1;stroke:#ffffff;stroke-width:1.02646;stroke-opacity:1" id="rect1986-9-5-9-8" width="333.21707" height="153.4781" x="6217" y="-5570" transform="scale(1,-1)" />
      <rect style="fill:#ffffff;fill-opacity:1;stroke:#ffffff;stroke-width:4.61052;stroke-opacity:1" id="rect1986-49-3-2-6" width="2776.2214" height="371.65323" x="-9177.7822" y="-13989.808" transform="matrix(8.6769491e-4,-0.99999962,-0.99998594,-0.00530327,0,0)" />
      <rect style="fill:#ffffff;fill-opacity:1;stroke:#ffffff;stroke-width:6.24836;stroke-opacity:1" id="rect1986-1-1" width="6536.9463" height="289.90173" x="15.049327" y="-9539.9502" transform="scale(1,-1)" />
      <rect style="fill:#ffffff;fill-opacity:1;stroke:#ffffff;stroke-width:6.40584;stroke-opacity:1" id="rect1986-1-7" width="6545" height="304.32358" x="15" y="-2684.3237" transform="scale(1,-1)" />
      <rect style="fill:#ffffff;fill-opacity:1;stroke:#ffffff;stroke-width:6.14971;stroke-opacity:1" id="rect1986-1-3" width="6330" height="290.0004" x="13610" y="-2670" transform="scale(1,-1)" />
      <rect style="fill:#ffffff;fill-opacity:1;stroke:#ffffff;stroke-width:6.26671;stroke-opacity:1" id="rect1986-1" width="6329.8828" height="301.14514" x="13610.059" y="-9539.9414" transform="scale(1,-1)" />
      <rect style="fill:#ffffff;fill-opacity:1;stroke:#808080;stroke-width:4.6165;stroke-opacity:1" id="rect1986-49-3-7-9" width="670.45404" height="1373.8295" x="-15991.321" y="7192.9268" transform="matrix(-0.99994221,0.01075104,0.00139654,0.99999902,0,0)" />
      <ellipse style="fill:#a0c0ff;fill-opacity:1;stroke:#a0c0ff;stroke-width:12.1106;stroke-miterlimit:4;stroke-dasharray:none;stroke-opacity:1" id="path9843-6-41-8-4-4-6" cx="-16454.303" cy="5455.3013" transform="matrix(-0.99492054,-0.10066342,0.01163095,0.99993236,0,0)" rx="696.7124" ry="82.870514" />
      <rect style="fill:#a0c0ff;fill-opacity:1;stroke:#a0c0ff;stroke-width:3.88892;stroke-opacity:1" id="rect1986-49-3-7-1-5" width="589.66766" height="1108.4811" x="-17387.816" y="7329.8477" transform="matrix(-0.99995136,0.00986298,0.0015223,0.99999884,0,0)" />
      <ellipse style="fill:#a0c0ff;fill-opacity:1;stroke:#a0c0ff;stroke-width:10.8679;stroke-miterlimit:4;stroke-dasharray:none;stroke-opacity:1" id="path9843-6-41-8-4-4" cx="-14678.271" cy="9989.4873" transform="matrix(-0.99470601,0.10276167,0.18176037,0.98334285,0,0)" rx="675.16254" ry="68.866089" />
      <rect style="fill:#ffffff;fill-opacity:1;stroke:#808080;stroke-width:4.60655;stroke-opacity:1" id="rect1986-49-3-7" width="667.56775" height="1373.8295" x="-4848.1724" y="3566.3152" transform="matrix(-0.9999417,0.01079753,0.00139053,0.99999903,0,0)" />
      <ellipse style="fill:#a0c0ff;fill-opacity:1;stroke:#a0c0ff;stroke-width:11.133;stroke-miterlimit:4;stroke-dasharray:none;stroke-opacity:1" id="path9843-6-41-8-4-4-9" cx="-3017.7488" cy="3983.8315" transform="matrix(-0.99481068,0.10174336,0.18353722,0.98301276,0,0)" rx="694.96649" ry="70.207214" />
      <ellipse style="fill:#a0c0ff;fill-opacity:1;stroke:#a0c0ff;stroke-width:13.0679;stroke-miterlimit:4;stroke-dasharray:none;stroke-opacity:1" id="path9843-6-41-8-4-4-5" cx="-3569.7468" cy="4576.4375" transform="matrix(-0.99722853,-0.07439927,0.0424366,0.99909916,0,0)" rx="696.39539" ry="96.533958" />
      <rect style="fill:#a0c0ff;fill-opacity:1;stroke:#a0c0ff;stroke-width:3.88892;stroke-opacity:1" id="rect1986-49-3-7-1" width="589.66766" height="1108.4811" x="-3348.9119" y="3683.2886" transform="matrix(-0.99995136,0.00986298,0.0015223,0.99999884,0,0)" />
      <rect style="fill:#ffff00;fill-opacity:1;stroke:#808080;stroke-width:2.80161;stroke-opacity:1" id="rect1986-9-5-3" width="1147.9187" height="331.89093" x="4577.0811" y="-6112.8911" transform="scale(1,-1)" />
      <rect style="fill:#ffff00;fill-opacity:1;stroke:#808080;stroke-width:2.43219;stroke-opacity:1" id="rect1986-9-5-80" width="822.49841" height="349.10016" x="7.5015459" y="-6128.2095" transform="scale(1,-1)" />
      <rect style="fill:#ffff00;fill-opacity:1;stroke:#808080;stroke-width:2.87322;stroke-opacity:1" id="rect1986-9-5-6" width="1147.9187" height="349.07324" x="2132.0813" y="-6124.0732" transform="scale(1,-1)" />
      <rect style="fill:#ffff00;fill-opacity:1;stroke:#808080;stroke-width:2.05317;stroke-opacity:1" id="rect1986-9-5-2" width="615.12878" height="332.63937" x="19324.625" y="-6139.374" transform="scale(1,-1)" />
      <rect style="fill:#ffff00;fill-opacity:1;stroke:#808080;stroke-width:2.81827;stroke-opacity:1" id="rect1986-9-5-8" width="1147.902" height="335.8559" x="16897.088" y="-6143.9917" transform="scale(1,-1)" />
      <rect style="fill:#ffff00;fill-opacity:1;stroke:#808080;stroke-width:2.80161;stroke-opacity:1" id="rect1986-9-5" width="1147.9187" height="331.89093" x="14444.323" y="-6137.1587" transform="scale(1,-1)" />
      <rect style="fill:#ffffff;fill-opacity:1;stroke:#ffffff;stroke-width:1.02646;stroke-opacity:1" id="rect1986-9-5-9" width="333.21707" height="153.4781" x="13612.485" y="-6473.7017" transform="scale(1,-1)" />
      <rect style="fill:#ffffff;fill-opacity:1;stroke:#808080;stroke-width:11.4258;stroke-opacity:1" id="rect1986-49-3" width="4329.7061" height="1463.553" x="-8152.0381" y="-8416.4297" transform="matrix(0.00219098,-0.9999976,-0.99999779,-0.00210027,0,0)" />
      <rect style="fill:#ffffff;fill-opacity:1;stroke:#ffffff;stroke-width:4.54927;stroke-opacity:1" id="rect1986-49-3-2" width="2765.7102" height="363.21902" x="-5399.1318" y="-6562.3369" transform="matrix(8.5122605e-4,-0.99999964,-0.99998539,-0.00540587,0,0)" />
      <rect style="fill:#dedef0;fill-opacity:1;stroke:#808080;stroke-width:7.0037;stroke-opacity:1" id="rect2283-7" width="19940" height="2106.6772" x="-1.8189894e-12" y="-2090" transform="scale(1,-1)" />
      <rect style="fill:#ffffff;fill-opacity:1;stroke:#808080;stroke-width:6.23517;stroke-opacity:1" id="rect1986-49-4" width="2387.8713" height="790.27637" x="9910" y="-1460" transform="scale(1,-1)" />
      <rect style="fill:#dedef0;fill-opacity:1;stroke:#808080;stroke-width:7.0037;stroke-opacity:1" id="rect2283" width="19940" height="2106.6772" x="0" y="-11936.678" transform="scale(1,-1)" />
      <path d="m 9028.6884,11283.277 c -275.3991,-74.213 -446.3885,-360.469 -378.2955,-634.607 59.0142,-242.332 276.9123,-418.023 517.5081,-418.023 281.452,0 537.1796,255.964 537.1796,537.676 0,233.243 -174.0159,454.371 -402.5063,514.954 -105.9228,27.263 -169.4763,27.263 -273.8859,0 z" id="path313-3-5" style="fill:#808080;fill-opacity:1;stroke:#800000;stroke-width:1.51388;stroke-opacity:1" />
      <path d="M9044 11345 c-251 -54 -444 -296 -444 -555 0 -309 261 -570 570 -570 263 0 501 193 556 449 41 195 -17 385 -160 526 -140 138 -329 192 -522 150z m143 -62 c5 3 19 -8 32 -24 13 -16 27 -26 32 -23 5 3 9 -6 9 -20 0 -14 -4 -27 -10 -31 -14 -9 0 -36 24 -44 11 -5 21 -17 21 -27 0 -12 6 -18 17 -16 9 1 19 -6 23 -18 3 -11 12 -20 20 -20 8 0 17 -9 20 -20 3 -11 12 -20 20 -20 8 0 11 -7 8 -20 -3 -13 1 -22 11 -26 13 -5 14 -9 5 -20 -9 -11 -8 -15 5 -20 11 -4 13 -11 6 -23 -5 -10 -6 -27 -3 -39 3 -14 1 -22 -7 -22 -8 0 -10 -8 -6 -24 3 -14 1 -28 -5 -31 -6 -4 -8 -14 -5 -22 6 -15 -15 -43 -33 -43 -6 0 -11 -4 -11 -10 0 -5 -4 -10 -10 -10 -5 0 -10 7 -10 16 0 8 -5 12 -11 9 -6 -4 -8 -13 -5 -21 3 -7 1 -16 -4 -19 -16 -10 -12 -35 5 -35 13 0 13 -3 3 -21 -10 -17 -10 -23 -1 -26 8 -3 11 -14 7 -29 -4 -17 -1 -26 10 -30 13 -5 14 -9 4 -21 -10 -12 -9 -17 5 -24 9 -5 14 -16 10 -24 -3 -9 0 -21 6 -29 6 -7 9 -21 5 -30 -3 -9 -1 -16 6 -16 14 0 35 -20 42 -40 7 -22 -41 -61 -62 -50 -11 6 -21 5 -28 -2 -9 -9 -12 -8 -12 3 0 10 -9 14 -27 13 -42 -1 -62 6 -56 22 3 8 0 14 -7 14 -6 0 -9 8 -5 19 3 10 -1 23 -9 30 -8 7 -12 19 -9 27 4 10 -2 17 -16 21 -21 5 -30 23 -11 23 6 0 10 6 10 13 -1 18 -38 63 -46 55 -4 -4 -1 -14 5 -22 15 -18 6 -36 -16 -36 -11 0 -14 -7 -11 -24 3 -16 0 -27 -10 -31 -8 -3 -12 -13 -9 -24 3 -12 -1 -22 -10 -25 -8 -4 -13 -13 -9 -21 8 -23 -39 -51 -59 -35 -8 7 -15 9 -15 4 0 -5 -11 -14 -25 -21 -14 -6 -25 -7 -25 -2 0 5 -9 9 -19 9 -25 0 -54 39 -41 55 5 7 6 16 2 20 -4 5 1 5 10 2 15 -5 19 1 24 33 4 22 10 40 15 40 5 0 9 11 9 25 0 14 5 25 10 25 6 0 8 10 4 24 -4 16 -1 25 11 30 11 4 14 12 10 25 -3 11 -1 22 5 26 7 4 9 18 6 31 -5 18 -2 24 10 24 12 0 14 4 6 13 -5 7 -6 21 -1 32 14 37 8 50 -9 20 -17 -29 -52 -46 -52 -25 0 5 -7 10 -16 10 -9 0 -12 5 -8 12 4 6 -1 17 -11 24 -14 11 -16 16 -6 28 8 10 9 16 1 21 -5 3 -7 17 -4 30 3 12 1 26 -6 30 -8 5 -8 10 1 21 9 11 9 17 -1 29 -9 10 -9 15 -1 15 6 0 11 11 11 25 0 14 5 25 10 25 6 0 10 10 10 22 0 12 3 19 6 15 11 -10 36 22 30 38 -4 11 2 15 19 15 19 0 25 5 25 22 0 17 3 19 12 10 18 -18 53 15 36 35 -8 10 -9 16 -1 21 6 4 14 24 18 45 4 21 13 37 21 37 8 0 14 5 14 10 0 6 7 10 15 10 8 0 15 5 15 11 0 8 4 8 15 -1 8 -6 18 -9 22 -7z" id="path309" />
      <path d="M9870 10785 l0 -425 1225 0 1225 0 0 425 0 425 -1225 0 -1225 0 0 -425z m2420 0 l0 -395 -1195 0 -1195 0 0 395 0 395 1195 0 1195 0 0 -395z" id="path311" />
      <rect style="fill:#ffffff;fill-opacity:1;stroke:#808080;stroke-width:6.23517;stroke-opacity:1" id="rect1986-49" width="2387.8713" height="790.27637" x="9901.0645" y="-11178.936" transform="scale(1,-1)" />
      <path d="M10213 11125 c-182 -49 -295 -238 -250 -419 39 -160 183 -276 342 -276 186 0 355 169 355 355 0 154 -115 300 -266 340 -70 18 -112 18 -181 0z" id="path313" style="fill:#ff0000;fill-opacity:1" />
      <path d="m 11003,11125 c -182,-49 -295,-238 -250,-419 39,-160 183,-276 342,-276 186,0 355,169 355,355 0,154 -115,300 -266,340 -70,18 -112,18 -181,0 z" id="path313-3" style="fill:#ffff00;fill-opacity:1" />
      <path d="m 11793,11125 c -182,-49 -295,-238 -250,-419 39,-160 183,-276 342,-276 186,0 355,169 355,355 0,154 -115,300 -266,340 -70,18 -112,18 -181,0 z" id="path313-8" style="fill:#00ff00;fill-opacity:1" />
      <path d="M11003 11125 c-182 -49 -295 -238 -250 -419 39 -160 183 -276 342 -276 186 0 355 169 355 355 0 154 -115 300 -266 340 -70 18 -112 18 -181 0z m220 -44 c65 -28 131 -93 164 -160 39 -79 40 -191 2 -271 -33 -70 -89 -126 -159 -159 -75 -36 -190 -37 -267 -2 -62 28 -136 103 -166 169 -33 72 -30 189 6 263 43 89 122 153 222 180 46 12 145 2 198 -20z" id="path315" />
      <path d="M11793 11125 c-182 -49 -295 -238 -250 -419 39 -160 183 -276 342 -276 186 0 355 169 355 355 0 154 -115 300 -266 340 -70 18 -112 18 -181 0z m220 -45 c90 -40 142 -101 182 -215 48 -133 -37 -312 -180 -377 -71 -32 -189 -32 -262 1 -62 28 -136 103 -166 169 -29 65 -30 188 0 253 75 165 265 240 426 169z" id="path317" />
      <path d="M0 9770 l0 -60 9970 0 9970 0 0 60 0 60 -9970 0 -9970 0 0 -60z" id="path319" />
      <path d="M0 9565 l0 -25 3167 0 c2169 0 3195 -3 3257 -11 152 -17 136 -2 136 -133 l0 -114 -47 -13 c-39 -11 -678 -14 -3280 -16 l-3233 -3 0 -25 0 -25 3109 0 c3179 0 3280 1 3429 38 l67 17 3 131 c3 154 3 155 -104 181 -64 16 -295 18 -3286 20 l-3218 3 0 -25z" id="path321" />
      <path d="M13576 9574 c-14 -14 -16 -159 -16 -1452 0 -896 4 -1482 10 -1557 11 -124 32 -229 51 -252 9 -10 49 -13 159 -13 130 0 149 2 164 19 24 27 45 142 56 309 11 164 12 2284 2 2460 l-7 112 2973 0 2972 0 0 25 0 25 -2973 0 c-2419 0 -2976 -2 -2991 -13 -17 -12 -18 -83 -20 -1342 -2 -1339 -4 -1407 -37 -1512 l-11 -33 -128 0 -129 0 -10 53 c-28 136 -31 322 -31 1705 l0 1432 3165 0 3165 0 0 25 0 25 -3174 0 c-2873 0 -3176 -1 -3190 -16z" id="path323" />
      <path d="M8625 9535 c-24 -23 -25 -31 -25 -133 0 -156 0 -156 164 -160 123 -4 126 -3 151 22 24 24 25 31 25 136 0 104 -1 112 -25 135 -23 24 -30 25 -145 25 -115 0 -122 -1 -145 -25z m260 -135 l0 -105 -115 0 -115 0 -3 94 c-1 52 0 101 2 108 4 11 31 13 118 11 l113 -3 0 -105z" id="path325" />
      <path d="M11815 9535 c-24 -23 -25 -31 -25 -135 0 -105 1 -112 25 -136 25 -25 28 -26 151 -22 164 4 164 4 164 160 0 102 -1 110 -25 133 -23 24 -30 25 -145 25 -115 0 -122 -1 -145 -25z m260 -135 l0 -105 -115 0 -115 0 -3 94 c-1 52 0 101 2 108 4 11 31 13 118 11 l113 -3 0 -105z" id="path327" />
      <rect style="fill:#c0c0c0;fill-opacity:1;stroke:#808080;stroke-width:4.15649;stroke-opacity:1" id="rect1986" width="2448.5566" height="342.48093" x="9142.6777" y="-9447.917" transform="scale(1,-1)" />
      <path d="M9203 9480 c-53 -11 -99 -35 -107 -55 -3 -9 -6 -81 -6 -160 0 -143 0 -144 26 -164 59 -47 44 -46 1249 -46 1205 0 1190 -1 1249 46 26 20 26 21 26 165 0 80 -4 153 -10 163 -5 10 -29 27 -52 37 -41 18 -93 19 -1188 21 -630 0 -1164 -3 -1187 -7z m2352 -60 l30 -15 3 -133 3 -133 -38 -17 c-35 -16 -124 -17 -1188 -17 -1061 0 -1153 1 -1187 17 l-38 17 0 129 c0 143 1 146 66 161 23 5 505 9 1179 8 995 -2 1144 -4 1170 -17z" id="path329" style="fill:#000000;fill-opacity:1" />
      <path d="M8625 8865 c-24 -23 -25 -31 -25 -133 0 -156 0 -156 164 -160 123 -4 126 -3 151 22 24 24 25 31 25 136 0 104 -1 112 -25 135 -23 24 -30 25 -145 25 -115 0 -122 -1 -145 -25z m260 -135 l0 -105 -115 0 -115 0 -3 94 c-1 52 0 101 2 108 4 11 31 13 118 11 l113 -3 0 -105z" id="path331" />
      <path d="M11815 8865 c-24 -23 -25 -31 -25 -135 0 -105 1 -112 25 -136 25 -25 28 -26 151 -22 164 4 164 4 164 160 0 102 -1 110 -25 133 -23 24 -30 25 -145 25 -115 0 -122 -1 -145 -25z m260 -135 l0 -105 -115 0 -115 0 -3 94 c-1 52 0 101 2 108 4 11 31 13 118 11 l113 -3 0 -105z" id="path333" />
      <rect style="fill:#c0c0c0;fill-opacity:1;stroke:#808080;stroke-width:4.15649;stroke-opacity:1" id="rect1986-4" width="2448.5566" height="342.48093" x="9136.4434" y="-8774" transform="scale(1,-1)" />
      <path d="M9203 8810 c-53 -11 -99 -35 -107 -55 -3 -9 -6 -81 -6 -160 0 -143 0 -144 26 -164 59 -47 44 -46 1249 -46 1205 0 1190 -1 1249 46 26 20 26 21 26 165 0 80 -4 153 -10 163 -5 10 -29 27 -52 37 -41 18 -93 19 -1188 21 -630 0 -1164 -3 -1187 -7z m2352 -60 l30 -15 3 -133 3 -133 -38 -17 c-35 -16 -124 -17 -1188 -17 -1061 0 -1153 1 -1187 17 l-38 17 0 129 c0 143 1 146 66 161 23 5 505 9 1179 8 995 -2 1144 -4 1170 -17z" id="path335" />
      <path d="M14994 8709 c-109 -14 -224 -55 -224 -79 0 -6 -21 -10 -47 -10 -140 -1 -350 -72 -434 -148 -94 -84 -89 -39 -89 -757 0 -591 2 -632 19 -670 54 -118 212 -196 454 -227 53 -7 97 -16 97 -21 0 -15 103 -56 175 -69 106 -19 394 -17 481 4 77 18 154 52 154 68 0 6 27 10 60 10 43 0 60 -4 60 -13 0 -19 74 -97 92 -97 26 0 39 26 34 69 l-4 41 359 0 c226 0 359 -4 359 -10 0 -12 48 -37 124 -63 55 -19 85 -21 287 -21 148 0 235 3 250 11 13 6 46 19 72 28 27 10 62 30 78 46 16 16 39 29 51 29 34 0 159 40 220 71 72 37 124 82 149 130 18 37 19 64 19 680 0 632 0 643 -21 686 -44 91 -194 176 -367 207 -18 3 -43 17 -55 30 -21 24 -126 66 -165 66 -10 0 -23 5 -28 10 -18 18 -397 7 -472 -13 -72 -19 -142 -53 -142 -67 0 -7 -126 -9 -357 -8 l-358 3 3 25 c10 85 -38 95 -95 21 -37 -48 -40 -50 -89 -50 -38 -1 -55 4 -68 18 -9 10 -50 29 -89 40 -40 12 -86 26 -103 31 -36 12 -302 11 -390 -1z m-405 -143 c-16 -16 -339 -193 -339 -185 0 19 72 87 121 114 58 31 173 73 203 74 11 1 17 -1 15 -3z m2951 -32 c72 -27 165 -87 181 -116 10 -19 -96 30 -251 117 -56 31 -60 35 -30 29 19 -3 64 -17 100 -30z m-1812 -178 c31 -13 96 -36 144 -51 86 -27 87 -27 77 -53 -39 -103 -79 -368 -79 -528 0 -134 18 -295 47 -419 38 -166 44 -151 -72 -189 -55 -19 -117 -41 -139 -50 -38 -17 -39 -17 -63 6 -38 36 -126 175 -162 256 -76 175 -99 390 -61 572 23 112 70 236 121 322 31 51 116 158 125 158 3 0 30 -11 62 -24z m706 -31 c357 -31 651 -57 653 -59 12 -12 -268 -29 -472 -29 -220 0 -256 2 -430 30 -178 29 -316 63 -396 97 -19 9 -28 15 -20 16 8 0 307 -25 665 -55z m830 -167 c96 -194 128 -426 87 -627 -35 -165 -118 -351 -159 -351 -9 0 -54 7 -99 14 -45 8 -120 18 -167 22 -47 4 -86 10 -86 13 0 4 9 47 19 96 25 112 41 269 41 390 0 121 -16 278 -41 390 -10 49 -19 92 -19 96 0 4 37 10 83 14 45 4 116 13 157 20 142 24 132 28 184 -77z m-429 -968 c160 -9 259 -20 252 -26 -6 -6 -1309 -115 -1321 -111 -6 2 48 22 119 45 91 29 183 49 305 66 254 37 371 42 645 26z m-2411 -229 c91 -52 165 -96 162 -98 -7 -7 -115 26 -182 57 -62 28 -136 87 -155 123 -14 25 -21 28 175 -82z m3297 45 c-27 -32 -122 -88 -190 -112 -40 -14 -75 -23 -78 -20 -4 4 260 143 276 145 2 1 -2 -5 -8 -13z" id="path337" style="fill:#1040c0;fill-opacity:1" />
      <path d="M8625 8195 c-24 -23 -25 -31 -25 -133 0 -156 0 -156 164 -160 123 -4 126 -3 151 22 24 24 25 31 25 136 0 104 -1 112 -25 135 -23 24 -30 25 -145 25 -115 0 -122 -1 -145 -25z m260 -135 l0 -105 -115 0 -115 0 -3 94 c-1 52 0 101 2 108 4 11 31 13 118 11 l113 -3 0 -105z" id="path339" />
      <path d="M11815 8195 c-24 -23 -25 -31 -25 -135 0 -105 1 -112 25 -136 25 -25 28 -26 151 -22 164 4 164 4 164 160 0 102 -1 110 -25 133 -23 24 -30 25 -145 25 -115 0 -122 -1 -145 -25z m260 -135 l0 -105 -115 0 -115 0 -3 94 c-1 52 0 101 2 108 4 11 31 13 118 11 l113 -3 0 -105z" id="path341" />
      <path d="M6935 8168 c-3 -7 -4 -989 -3 -2183 l3 -2170 745 0 745 0 0 2180 0 2180 -743 3 c-589 2 -744 0 -747 -10z m1465 -2173 l0 -2155 -720 0 -720 0 0 2155 0 2155 720 0 720 0 0 -2155z" id="path343" />
      <path d="M7562 7995 c-169 -37 -340 -171 -416 -325 -87 -178 -87 -372 0 -550 51 -104 170 -223 274 -274 240 -117 523 -71 708 115 188 190 234 468 116 709 -51 104 -170 223 -274 274 -128 62 -272 80 -408 51z" id="path345" style="image-rendering:optimizeQuality;fill:#ff0000" />
      <path d="m 7562,6595 c -169,-37 -340,-171 -416,-325 -87,-178 -87,-372 0,-550 51,-104 170,-223 274,-274 240,-117 523,-71 708,115 188,190 234,468 116,709 -51,104 -170,223 -274,274 -128,62 -272,80 -408,51 z" id="path345-9" style="fill:#ffff00;image-rendering:optimizeQuality;fill-opacity:1" />
      <path d="m 7562,5195 c -169,-37 -340,-171 -416,-325 -87,-178 -87,-372 0,-550 51,-104 170,-223 274,-274 240,-117 523,-71 708,115 188,190 234,468 116,709 -51,104 -170,223 -274,274 -128,62 -272,80 -408,51 z" id="path345-9-1" style="fill:#00ff00;fill-opacity:1;image-rendering:optimizeQuality" />
      <path d="M7562 6595 c-169 -37 -340 -171 -416 -325 -87 -178 -87 -372 0 -550 51 -104 170 -223 274 -274 240 -117 523 -71 708 115 188 190 234 468 116 709 -51 104 -170 223 -274 274 -128 62 -272 80 -408 51z m261 -34 c6 -6 23 -11 38 -11 15 0 31 -4 34 -10 3 -5 14 -10 24 -10 10 0 24 -7 31 -15 7 -8 21 -15 31 -15 11 0 19 -4 19 -10 0 -5 6 -10 14 -10 35 0 186 -166 186 -204 0 -8 7 -19 15 -26 8 -7 15 -21 15 -31 0 -10 5 -21 10 -24 6 -3 10 -19 10 -35 0 -15 6 -30 13 -32 9 -4 12 -39 12 -133 0 -94 -3 -129 -12 -132 -7 -3 -13 -18 -13 -33 0 -16 -4 -32 -10 -35 -5 -3 -10 -14 -10 -24 0 -10 -7 -24 -15 -31 -8 -7 -15 -18 -15 -26 0 -38 -151 -204 -186 -204 -8 0 -14 -4 -14 -10 0 -5 -8 -10 -19 -10 -10 0 -24 -7 -31 -15 -7 -8 -21 -15 -31 -15 -10 0 -21 -4 -24 -10 -3 -5 -19 -10 -35 -10 -15 0 -30 -6 -32 -12 -6 -17 -235 -18 -269 -2 -13 7 -44 18 -68 25 -24 7 -49 19 -57 26 -7 7 -18 13 -24 13 -6 0 -31 13 -54 29 -142 98 -246 299 -246 476 0 177 104 378 246 476 23 16 50 29 58 29 9 0 16 4 16 9 0 9 53 29 130 51 25 7 50 14 55 16 22 8 197 -4 208 -15z" id="path347" />
      <path d="M7562 5195 c-169 -37 -340 -171 -416 -325 -87 -178 -87 -372 0 -550 51 -104 170 -223 274 -274 240 -117 523 -71 708 115 188 190 234 468 116 709 -51 104 -170 223 -274 274 -128 62 -272 80 -408 51z m257 -30 c92 -22 203 -79 266 -137 58 -53 115 -129 115 -154 0 -7 4 -14 9 -14 11 0 41 -79 41 -107 0 -12 6 -23 13 -25 9 -4 12 -38 12 -126 0 -83 -4 -125 -12 -133 -7 -7 -13 -25 -13 -40 0 -15 -4 -31 -10 -34 -5 -3 -10 -15 -10 -26 0 -11 -7 -22 -15 -25 -8 -4 -15 -16 -15 -29 0 -13 -7 -25 -15 -29 -8 -3 -15 -13 -15 -21 0 -21 -124 -145 -145 -145 -8 0 -18 -7 -21 -15 -4 -8 -16 -15 -29 -15 -13 0 -25 -7 -29 -15 -3 -8 -11 -12 -19 -9 -8 3 -20 -2 -27 -11 -7 -8 -24 -15 -39 -15 -15 0 -33 -6 -40 -12 -8 -9 -50 -13 -133 -13 -88 0 -122 3 -126 13 -2 6 -16 12 -31 12 -15 0 -36 7 -47 15 -10 8 -27 15 -36 15 -10 0 -18 5 -18 10 0 6 -7 10 -14 10 -40 0 -206 150 -206 186 0 8 -4 14 -10 14 -5 0 -10 8 -10 19 0 10 -7 24 -15 31 -8 7 -15 20 -15 29 0 9 -4 21 -9 27 -6 5 -12 20 -15 34 -3 14 -10 43 -15 65 -26 101 -5 239 56 364 112 231 392 365 642 306z" id="path349" />
      <rect style="fill:#c0c0c0;fill-opacity:1;stroke:#808080;stroke-width:4.15649;stroke-opacity:1" id="rect1986-5" width="2448.5566" height="342.48093" x="9140" y="-8096.481" transform="scale(1,-1)" />
      <path d="M9203 8140 c-53 -11 -99 -35 -107 -55 -3 -9 -6 -81 -6 -160 0 -143 0 -144 26 -164 59 -47 44 -46 1249 -46 1205 0 1190 -1 1249 46 26 20 26 21 26 165 0 80 -4 153 -10 163 -5 10 -29 27 -52 37 -41 18 -93 19 -1188 21 -630 0 -1164 -3 -1187 -7z m2352 -60 l30 -15 3 -133 3 -133 -38 -17 c-35 -16 -124 -17 -1188 -17 -1061 0 -1153 1 -1187 17 l-38 17 0 129 c0 143 1 146 66 161 23 5 505 9 1179 8 995 -2 1144 -4 1170 -17z" id="path351" />
      <path d="M8625 7525 c-24 -23 -25 -31 -25 -133 0 -156 0 -156 164 -160 123 -4 126 -3 151 22 24 24 25 31 25 136 0 104 -1 112 -25 135 -23 24 -30 25 -145 25 -115 0 -122 -1 -145 -25z m260 -135 l0 -105 -115 0 -115 0 -3 94 c-1 52 0 101 2 108 4 11 31 13 118 11 l113 -3 0 -105z" id="path353" />
      <path d="M11815 7525 c-24 -23 -25 -31 -25 -135 0 -105 1 -112 25 -136 25 -25 28 -26 151 -22 164 4 164 4 164 160 0 102 -1 110 -25 133 -23 24 -30 25 -145 25 -115 0 -122 -1 -145 -25z m260 -135 l0 -105 -115 0 -115 0 -3 94 c-1 52 0 101 2 108 4 11 31 13 118 11 l113 -3 0 -105z" id="path355" />
      <rect style="fill:#c0c0c0;fill-opacity:1;stroke:#808080;stroke-width:4.15649;stroke-opacity:1" id="rect1986-9" width="2448.5566" height="342.48093" x="9142.4434" y="-7426.481" transform="scale(1,-1)" />
      <path d="M9203 7470 c-53 -11 -99 -35 -107 -55 -3 -9 -6 -81 -6 -160 0 -143 0 -144 26 -164 59 -47 44 -46 1249 -46 1205 0 1190 -1 1249 46 26 20 26 21 26 165 0 80 -4 153 -10 163 -5 10 -29 27 -52 37 -41 18 -93 19 -1188 21 -630 0 -1164 -3 -1187 -7z m2352 -60 l30 -15 3 -133 3 -133 -38 -17 c-35 -16 -124 -17 -1188 -17 -1061 0 -1153 1 -1187 17 l-38 17 0 129 c0 143 1 146 66 161 23 5 505 9 1179 8 995 -2 1144 -4 1170 -17z" id="path357" />
      <path d="M8625 6855 c-24 -23 -25 -31 -25 -133 0 -156 0 -156 164 -160 123 -4 126 -3 151 22 24 24 25 31 25 136 0 104 -1 112 -25 135 -23 24 -30 25 -145 25 -115 0 -122 -1 -145 -25z m260 -135 l0 -105 -115 0 -115 0 -3 94 c-1 52 0 101 2 108 4 11 31 13 118 11 l113 -3 0 -105z" id="path359" />
      <path d="M11815 6855 c-24 -23 -25 -31 -25 -135 0 -105 1 -112 25 -136 25 -25 28 -26 151 -22 164 4 164 4 164 160 0 102 -1 110 -25 133 -23 24 -30 25 -145 25 -115 0 -122 -1 -145 -25z m260 -135 l0 -105 -115 0 -115 0 -3 94 c-1 52 0 101 2 108 4 11 31 13 118 11 l113 -3 0 -105z" id="path361" />
      <rect style="fill:#c0c0c0;fill-opacity:1;stroke:#808080;stroke-width:4.15649;stroke-opacity:1" id="rect1986-41" width="2448.5566" height="342.48093" x="9140" y="-6756.481" transform="scale(1,-1)" />
      <path d="M9203 6800 c-53 -11 -99 -35 -107 -55 -3 -9 -6 -81 -6 -160 0 -143 0 -144 26 -164 59 -47 44 -46 1249 -46 1205 0 1190 -1 1249 46 26 20 26 21 26 165 0 80 -4 153 -10 163 -5 10 -29 27 -52 37 -41 18 -93 19 -1188 21 -630 0 -1164 -3 -1187 -7z m2352 -60 l30 -15 3 -133 3 -133 -38 -17 c-35 -16 -124 -17 -1188 -17 -1061 0 -1153 1 -1187 17 l-38 17 0 129 c0 143 1 146 66 161 23 5 505 9 1179 8 995 -2 1144 -4 1170 -17z" id="path363" />
      <path d="M8635 6185 c-24 -23 -25 -31 -25 -133 0 -156 0 -156 164 -160 123 -4 126 -3 151 22 24 24 25 31 25 136 0 104 -1 112 -25 135 -23 24 -30 25 -145 25 -115 0 -122 -1 -145 -25z m260 -135 l0 -105 -115 0 -115 0 -3 94 c-1 52 0 101 2 108 4 11 31 13 118 11 l113 -3 0 -105z" id="path365" />
      <path d="M11825 6185 c-24 -23 -25 -31 -25 -135 0 -105 1 -112 25 -136 25 -25 28 -26 151 -22 164 4 164 4 164 160 0 102 -1 110 -25 133 -23 24 -30 25 -145 25 -115 0 -122 -1 -145 -25z m260 -135 l0 -105 -115 0 -115 0 -3 94 c-1 52 0 101 2 108 4 11 31 13 118 11 l113 -3 0 -105z" id="path367" />
      <path d="M14523 6180 c-53 -11 -99 -35 -107 -55 -3 -9 -6 -81 -6 -159 0 -222 -33 -211 605 -211 505 0 533 2 589 46 26 20 26 21 26 165 0 80 -4 153 -10 163 -5 10 -29 27 -52 37 -40 18 -78 19 -523 21 -264 1 -499 -2 -522 -7z m1022 -60 l30 -15 3 -133 3 -133 -38 -17 c-34 -15 -87 -17 -523 -17 -435 0 -489 2 -522 17 l-38 17 0 135 0 135 48 15 c70 22 992 18 1037 -4z" id="path369" style="stroke:#000000;stroke-opacity:1" />
      <path d="M16963 6180 c-53 -11 -99 -35 -107 -55 -3 -9 -6 -81 -6 -159 0 -222 -33 -211 605 -211 505 0 533 2 589 46 26 20 26 21 26 165 0 80 -4 153 -10 163 -5 10 -29 27 -52 37 -40 18 -78 19 -523 21 -264 1 -499 -2 -522 -7z m1022 -60 l30 -15 3 -133 3 -133 -38 -17 c-34 -15 -87 -17 -523 -17 -435 0 -489 2 -522 17 l-38 17 0 135 0 135 48 15 c70 22 992 18 1037 -4z" id="path371" />
      <path d="M19403 6180 c-53 -11 -99 -35 -107 -55 -3 -9 -6 -81 -6 -159 0 -135 1 -144 23 -163 44 -40 82 -45 360 -50 l267 -5 0 25 0 25 -262 4 c-215 3 -270 7 -300 21 l-38 16 0 135 0 135 52 16 c40 12 106 15 300 15 l248 0 0 25 0 25 -247 -1 c-137 -1 -267 -5 -290 -9z" id="path373" />
      <path d="M0 6147 l0 -25 378 -4 c326 -3 382 -6 415 -20 l37 -17 0 -135 0 -135 -52 -16 c-42 -12 -117 -15 -415 -15 l-363 0 0 -26 0 -25 388 3 c351 3 391 5 430 22 23 10 47 27 52 37 6 10 10 82 10 162 0 218 21 209 -497 215 l-383 4 0 -25z" id="path375" />
      <path d="M2243 6160 c-63 -9 -94 -21 -125 -48 -16 -13 -18 -34 -18 -159 0 -79 4 -153 10 -163 5 -10 31 -27 57 -37 44 -17 87 -18 543 -18 456 0 499 1 543 18 26 10 52 27 57 37 6 10 10 83 10 163 0 221 31 210 -565 213 -247 1 -478 -1 -512 -6z m990 -62 l37 -17 0 -135 0 -135 -54 -16 c-78 -23 -985 -18 -1031 5 l-30 15 -3 132 c-2 128 -2 132 20 144 43 23 135 27 578 25 394 -1 449 -3 483 -18z" id="path377" />
      <path d="M4683 6160 c-63 -9 -94 -21 -125 -48 -16 -13 -18 -34 -18 -159 0 -79 4 -153 10 -163 5 -10 31 -27 57 -37 44 -17 87 -18 543 -18 456 0 499 1 543 18 26 10 52 27 57 37 6 10 10 83 10 163 0 221 31 210 -565 213 -247 1 -478 -1 -512 -6z m990 -62 l37 -17 0 -135 0 -135 -54 -16 c-78 -23 -985 -18 -1031 5 l-30 15 -3 132 c-2 128 -2 132 20 144 43 23 135 27 578 25 394 -1 449 -3 483 -18z" id="path379" />
      <rect style="fill:#c0c0c0;fill-opacity:1;stroke:#808080;stroke-width:4.15649;stroke-opacity:1" id="rect1986-54" width="2448.5566" height="342.48093" x="9150" y="-6086.481" transform="scale(1,-1)" />
      <path d="M9213 6130 c-53 -11 -99 -35 -107 -55 -3 -9 -6 -81 -6 -160 0 -143 0 -144 26 -164 59 -47 44 -46 1249 -46 1205 0 1190 -1 1249 46 26 20 26 21 26 165 0 80 -4 153 -10 163 -5 10 -29 27 -52 37 -41 18 -93 19 -1188 21 -630 0 -1164 -3 -1187 -7z m2352 -60 l30 -15 3 -133 3 -133 -38 -17 c-35 -16 -124 -17 -1188 -17 -1061 0 -1153 1 -1187 17 l-38 17 0 129 c0 143 1 146 66 161 23 5 505 9 1179 8 995 -2 1144 -4 1170 -17z" id="path381" />
      <path d="M6226 5601 c-24 -27 -45 -142 -56 -309 -11 -164 -12 -2284 -2 -2460 l7 -112 -3087 0 -3088 0 0 -25 0 -25 3088 0 c2513 0 3091 2 3106 13 17 12 18 83 20 1342 2 1339 4 1407 37 1513 l11 32 128 0 129 0 10 -52 c28 -137 31 -323 31 -1705 l0 -1433 -3280 0 -3280 0 0 -25 0 -25 3289 0 c2977 0 3291 1 3305 16 14 14 16 159 16 1452 0 896 -4 1482 -10 1557 -11 124 -32 229 -51 252 -9 10 -49 13 -159 13 -130 0 -149 -2 -164 -19z" id="path383" />
      <path d="M8635 5515 c-24 -23 -25 -31 -25 -133 0 -156 0 -156 164 -160 123 -4 126 -3 151 22 24 24 25 31 25 136 0 104 -1 112 -25 135 -23 24 -30 25 -145 25 -115 0 -122 -1 -145 -25z m260 -135 l0 -105 -115 0 -115 0 -3 94 c-1 52 0 101 2 108 4 11 31 13 118 11 l113 -3 0 -105z" id="path385" />
      <path d="M11825 5515 c-24 -23 -25 -31 -25 -135 0 -105 1 -112 25 -136 25 -25 28 -26 151 -22 164 4 164 4 164 160 0 102 -1 110 -25 133 -23 24 -30 25 -145 25 -115 0 -122 -1 -145 -25z m260 -135 l0 -105 -115 0 -115 0 -3 94 c-1 52 0 101 2 108 4 11 31 13 118 11 l113 -3 0 -105z" id="path387" />
      <rect style="fill:#c0c0c0;fill-opacity:1;stroke:#808080;stroke-width:4.15649;stroke-opacity:1" id="rect1986-7" width="2448.5566" height="342.48093" x="9152.4434" y="-5416.481" transform="scale(1,-1)" />
      <path d="M9213 5460 c-53 -11 -99 -35 -107 -55 -3 -9 -6 -81 -6 -160 0 -143 0 -144 26 -164 59 -47 44 -46 1249 -46 1205 0 1190 -1 1249 46 26 20 26 21 26 165 0 80 -4 153 -10 163 -5 10 -29 27 -52 37 -41 18 -93 19 -1188 21 -630 0 -1164 -3 -1187 -7z m2352 -60 l30 -15 3 -133 3 -133 -38 -17 c-35 -16 -124 -17 -1188 -17 -1061 0 -1153 1 -1187 17 l-38 17 0 129 c0 143 1 146 66 161 23 5 505 9 1179 8 995 -2 1144 -4 1170 -17z" id="path389" />
      <path d="M4351 5206 c-7 -8 -10 -32 -7 -55 l4 -41 -359 0 c-226 0 -359 4 -359 10 0 12 -48 37 -124 63 -55 19 -85 21 -287 21 -148 0 -235 -3 -250 -11 -13 -6 -46 -19 -72 -28 -27 -10 -62 -30 -78 -46 -16 -16 -39 -29 -51 -29 -34 0 -159 -40 -220 -71 -72 -37 -124 -82 -149 -130 -18 -37 -19 -64 -19 -680 0 -632 0 -643 21 -686 44 -91 194 -176 367 -207 18 -3 43 -17 55 -30 21 -24 126 -66 165 -66 10 0 23 -5 28 -10 18 -18 397 -7 472 13 72 19 142 53 142 67 0 7 126 9 358 8 l357 -3 -3 -25 c-10 -85 38 -95 95 -21 37 48 40 50 89 50 38 1 55 -4 68 -18 15 -17 55 -32 198 -73 52 -15 385 -4 466 16 70 18 142 51 142 66 0 6 21 10 48 10 139 1 349 72 433 148 94 84 89 39 89 757 0 591 -2 632 -19 670 -54 118 -212 196 -454 227 -53 7 -97 16 -97 21 0 15 -103 56 -175 69 -106 19 -394 17 -481 -4 -77 -18 -154 -52 -154 -68 0 -6 -27 -10 -60 -10 -43 0 -60 4 -60 13 0 19 -74 97 -92 97 -9 0 -21 -6 -27 -14z m1359 -183 c36 -13 83 -35 106 -48 40 -24 120 -103 111 -111 -4 -4 -332 177 -345 191 -11 12 58 -5 128 -32z m-2990 22 c0 -3 -64 -37 -142 -76 -142 -71 -163 -73 -65 -5 59 41 207 99 207 81z m1690 -179 c0 -3 -57 -23 -127 -45 -148 -46 -397 -87 -598 -97 -131 -6 -495 10 -570 25 -22 5 -33 9 -25 10 71 8 1254 109 1283 110 20 0 37 -1 37 -3z m131 -33 c181 -207 266 -537 209 -813 -34 -167 -110 -328 -202 -434 l-43 -48 -60 25 c-33 14 -99 37 -147 52 -86 27 -87 27 -77 53 39 103 79 368 79 528 0 134 -18 295 -47 419 -38 166 -44 151 72 189 55 19 116 41 135 49 46 21 43 22 81 -20z m-1464 -107 c45 -8 120 -18 167 -22 47 -4 86 -10 86 -13 0 -4 -9 -47 -19 -96 -53 -243 -53 -537 0 -780 10 -49 19 -92 19 -96 0 -3 -37 -10 -82 -14 -46 -4 -121 -13 -168 -21 -133 -21 -122 -26 -174 79 -96 193 -128 425 -87 626 35 165 118 351 159 351 9 0 54 -7 99 -14z m913 -1075 c173 -27 311 -61 391 -95 19 -9 28 -15 20 -16 -28 0 -1315 111 -1318 114 -5 5 208 26 307 30 195 8 414 -4 600 -33z m1930 -111 c0 -21 -73 -89 -127 -118 -63 -33 -187 -76 -204 -70 -7 2 293 182 329 197 1 1 2 -3 2 -9z m-3165 -189 c-3 -2 -44 9 -91 24 -90 29 -196 92 -215 127 -8 15 32 -2 150 -63 88 -46 158 -85 156 -88z" id="path391" style="fill:#1040c0;fill-opacity:1" />
      <path d="M8635 4845 c-24 -23 -25 -31 -25 -133 0 -156 0 -156 164 -160 123 -4 126 -3 151 22 24 24 25 31 25 136 0 104 -1 112 -25 135 -23 24 -30 25 -145 25 -115 0 -122 -1 -145 -25z m260 -135 l0 -105 -115 0 -115 0 -3 94 c-1 52 0 101 2 108 4 11 31 13 118 11 l113 -3 0 -105z" id="path393" />
      <path d="M11825 4845 c-24 -23 -25 -31 -25 -135 0 -105 1 -112 25 -136 25 -25 28 -26 151 -22 164 4 164 4 164 160 0 102 -1 110 -25 133 -23 24 -30 25 -145 25 -115 0 -122 -1 -145 -25z m260 -135 l0 -105 -115 0 -115 0 -3 94 c-1 52 0 101 2 108 4 11 31 13 118 11 l113 -3 0 -105z" id="path395" />
      <rect style="fill:#c0c0c0;fill-opacity:1;stroke:#808080;stroke-width:4.15649;stroke-opacity:1" id="rect1986-43" width="2448.5566" height="342.48093" x="9150" y="-4746.481" transform="scale(1,-1)" />
      <path d="M9213 4790 c-53 -11 -99 -35 -107 -55 -3 -9 -6 -81 -6 -160 0 -143 0 -144 26 -164 59 -47 44 -46 1249 -46 1205 0 1190 -1 1249 46 26 20 26 21 26 165 0 80 -4 153 -10 163 -5 10 -29 27 -52 37 -41 18 -93 19 -1188 21 -630 0 -1164 -3 -1187 -7z m2352 -60 l30 -15 3 -133 3 -133 -38 -17 c-35 -16 -124 -17 -1188 -17 -1061 0 -1153 1 -1187 17 l-38 17 0 129 c0 143 1 146 66 161 23 5 505 9 1179 8 995 -2 1144 -4 1170 -17z" id="path397" />
      <path d="M8635 4175 c-24 -23 -25 -31 -25 -133 0 -156 0 -156 164 -160 123 -4 126 -3 151 22 24 24 25 31 25 136 0 104 -1 112 -25 135 -23 24 -30 25 -145 25 -115 0 -122 -1 -145 -25z m260 -135 l0 -105 -115 0 -115 0 -3 94 c-1 52 0 101 2 108 4 11 31 13 118 11 l113 -3 0 -105z" id="path399" />
      <path d="M11825 4175 c-24 -23 -25 -31 -25 -135 0 -105 1 -112 25 -136 25 -25 28 -26 151 -22 164 4 164 4 164 160 0 102 -1 110 -25 133 -23 24 -30 25 -145 25 -115 0 -122 -1 -145 -25z m260 -135 l0 -105 -115 0 -115 0 -3 94 c-1 52 0 101 2 108 4 11 31 13 118 11 l113 -3 0 -105z" id="path401" />
      <rect style="fill:#c0c0c0;fill-opacity:1;stroke:#808080;stroke-width:4.15649;stroke-opacity:1" id="rect1986-0" width="2448.5566" height="342.48093" x="9150" y="-4076.481" transform="scale(1,-1)" />
      <path d="M9213 4120 c-53 -11 -99 -35 -107 -55 -3 -9 -6 -81 -6 -160 0 -143 0 -144 26 -164 59 -47 44 -46 1249 -46 1205 0 1190 -1 1249 46 26 20 26 21 26 165 0 80 -4 153 -10 163 -5 10 -29 27 -52 37 -41 18 -93 19 -1188 21 -630 0 -1164 -3 -1187 -7z m2352 -60 l30 -15 3 -133 3 -133 -38 -17 c-35 -16 -124 -17 -1188 -17 -1061 0 -1153 1 -1187 17 l-38 17 0 129 c0 143 1 146 66 161 23 5 505 9 1179 8 995 -2 1144 -4 1170 -17z" id="path403" />
      <path d="M8635 3505 c-24 -23 -25 -31 -25 -133 0 -156 0 -156 164 -160 123 -4 126 -3 151 22 24 24 25 31 25 136 0 104 -1 112 -25 135 -23 24 -30 25 -145 25 -115 0 -122 -1 -145 -25z m260 -135 l0 -105 -115 0 -115 0 -3 94 c-1 52 0 101 2 108 4 11 31 13 118 11 l113 -3 0 -105z" id="path405" />
      <path d="M11825 3505 c-24 -23 -25 -31 -25 -135 0 -105 1 -112 25 -136 25 -25 28 -26 151 -22 164 4 164 4 164 160 0 102 -1 110 -25 133 -23 24 -30 25 -145 25 -115 0 -122 -1 -145 -25z m260 -135 l0 -105 -115 0 -115 0 -3 94 c-1 52 0 101 2 108 4 11 31 13 118 11 l113 -3 0 -105z" id="path407" />
      <rect style="fill:#c0c0c0;fill-opacity:1;stroke:#808080;stroke-width:4.15649;stroke-opacity:1" id="rect1986-2" width="2448.5566" height="342.48093" x="9153" y="-3405" transform="scale(1,-1)" />
      <path d="M9213 3450 c-53 -11 -99 -35 -107 -55 -3 -9 -6 -81 -6 -160 0 -143 0 -144 26 -164 59 -47 44 -46 1249 -46 1205 0 1190 -1 1249 46 26 20 26 21 26 165 0 80 -4 153 -10 163 -5 10 -29 27 -52 37 -41 18 -93 19 -1188 21 -630 0 -1164 -3 -1187 -7z m2352 -60 l30 -15 3 -133 3 -133 -38 -17 c-35 -16 -124 -17 -1188 -17 -1061 0 -1153 1 -1187 17 l-38 17 0 129 c0 143 1 146 66 161 23 5 505 9 1179 8 995 -2 1144 -4 1170 -17z" id="path409" />
      <path d="M8635 2835 c-24 -23 -25 -31 -25 -133 0 -156 0 -156 164 -160 123 -4 126 -3 151 22 24 24 25 31 25 136 0 104 -1 112 -25 135 -23 24 -30 25 -145 25 -115 0 -122 -1 -145 -25z m260 -135 l0 -105 -115 0 -115 0 -3 94 c-1 52 0 101 2 108 4 11 31 13 118 11 l113 -3 0 -105z" id="path411" />
      <path d="M11825 2835 c-24 -23 -25 -31 -25 -135 0 -105 1 -112 25 -136 25 -25 28 -26 151 -22 164 4 164 4 164 160 0 102 -1 110 -25 133 -23 24 -30 25 -145 25 -115 0 -122 -1 -145 -25z m260 -135 l0 -105 -115 0 -115 0 -3 94 c-1 52 0 101 2 108 4 11 31 13 118 11 l113 -3 0 -105z" id="path413" />
      <rect style="fill:#c0c0c0;fill-opacity:1;stroke:#808080;stroke-width:4.15649;stroke-opacity:1" id="rect1986-26" width="2448.5566" height="342.48093" x="9150" y="-2736.481" transform="scale(1,-1)" />
      <path d="M9213 2780 c-53 -11 -99 -35 -107 -55 -3 -9 -6 -81 -6 -160 0 -143 0 -144 26 -164 59 -47 44 -46 1249 -46 1205 0 1190 -1 1249 46 26 20 26 21 26 165 0 80 -4 153 -10 163 -5 10 -29 27 -52 37 -41 18 -93 19 -1188 21 -630 0 -1164 -3 -1187 -7z m2352 -60 l30 -15 3 -133 3 -133 -38 -17 c-35 -16 -124 -17 -1188 -17 -1061 0 -1153 1 -1187 17 l-38 17 0 129 c0 143 1 146 66 161 23 5 505 9 1179 8 995 -2 1144 -4 1170 -17z" id="path415" />
      <path d="M13804 2708 c-55 -4 -131 -16 -170 -26 l-69 -17 -3 -131 c-3 -154 -3 -155 104 -181 64 -16 288 -18 3172 -20 l3102 -3 0 25 0 25 -3052 0 c-2881 0 -3139 2 -3255 26 -22 4 -23 8 -23 118 l0 114 48 13 c38 11 657 14 3165 16 l3117 3 0 25 0 25 -3017 -1 c-1660 -1 -3063 -6 -3119 -11z" id="path417" />
      <path d="M0 2150 l0 -60 9970 0 9970 0 0 60 0 60 -9970 0 -9970 0 0 -60z" id="path419" />
      <path d="m 9032.1059,1575.5056 c -275.3991,-74.213 -446.3885,-360.469 -378.2955,-634.60704 59.0142,-242.332 276.9123,-418.023 517.5081,-418.023 281.452,0 537.1796,255.964 537.1796,537.67604 0,233.243 -174.0159,454.371 -402.5063,514.954 -105.9228,27.263 -169.4763,27.263 -273.8859,0 z" id="path313-3-5-9" style="fill:#808080;fill-opacity:1;stroke:#800000;stroke-width:1.51388;stroke-opacity:1" />
      <path d="M9054 1625 c-251 -54 -444 -296 -444 -555 0 -309 261 -570 570 -570 263 0 501 193 556 449 41 195 -17 385 -160 526 -140 138 -329 192 -522 150z m143 -62 c5 3 19 -8 32 -24 13 -16 27 -26 32 -23 5 3 9 -6 9 -20 0 -14 -4 -27 -10 -31 -14 -9 0 -36 24 -44 11 -5 21 -17 21 -27 0 -12 6 -18 17 -16 9 1 19 -6 23 -18 3 -11 12 -20 20 -20 8 0 17 -9 20 -20 3 -11 12 -20 20 -20 8 0 11 -7 8 -20 -3 -13 1 -22 11 -26 13 -5 14 -9 5 -20 -9 -11 -8 -15 5 -20 11 -4 13 -11 6 -23 -5 -10 -6 -27 -3 -39 3 -14 1 -22 -7 -22 -8 0 -10 -8 -6 -24 3 -14 1 -28 -5 -31 -6 -4 -8 -14 -5 -22 6 -15 -15 -43 -33 -43 -6 0 -11 -4 -11 -10 0 -5 -4 -10 -10 -10 -5 0 -10 7 -10 16 0 8 -5 12 -11 9 -6 -4 -8 -13 -5 -21 3 -7 1 -16 -4 -19 -16 -10 -12 -35 5 -35 13 0 13 -3 3 -21 -10 -17 -10 -23 -1 -26 8 -3 11 -14 7 -29 -4 -17 -1 -26 10 -30 13 -5 14 -9 4 -21 -10 -12 -9 -17 5 -24 9 -5 14 -16 10 -24 -3 -9 0 -21 6 -29 6 -7 9 -21 5 -30 -3 -9 -1 -16 6 -16 14 0 35 -20 42 -40 7 -22 -41 -61 -62 -50 -11 6 -21 5 -28 -2 -9 -9 -12 -8 -12 3 0 10 -9 14 -27 13 -42 -1 -62 6 -56 22 3 8 0 14 -7 14 -6 0 -9 8 -5 19 3 10 -1 23 -9 30 -8 7 -12 19 -9 27 4 10 -2 17 -16 21 -21 5 -30 23 -11 23 6 0 10 6 10 13 -1 18 -38 63 -46 55 -4 -4 -1 -14 5 -22 15 -18 6 -36 -16 -36 -11 0 -14 -7 -11 -24 3 -16 0 -27 -10 -31 -8 -3 -12 -13 -9 -24 3 -12 -1 -22 -10 -25 -8 -4 -13 -13 -9 -21 8 -23 -39 -51 -59 -35 -8 7 -15 9 -15 4 0 -5 -11 -14 -25 -21 -14 -6 -25 -7 -25 -2 0 5 -9 9 -19 9 -25 0 -54 39 -41 55 5 7 6 16 2 20 -4 5 1 5 10 2 15 -5 19 1 24 33 4 22 10 40 15 40 5 0 9 11 9 25 0 14 5 25 10 25 6 0 8 10 4 24 -4 16 -1 25 11 30 11 4 14 12 10 25 -3 11 -1 22 5 26 7 4 9 18 6 31 -5 18 -2 24 10 24 12 0 14 4 6 13 -5 7 -6 21 -1 32 14 37 8 50 -9 20 -17 -29 -52 -46 -52 -25 0 5 -7 10 -16 10 -9 0 -12 5 -8 12 4 6 -1 17 -11 24 -14 11 -16 16 -6 28 8 10 9 16 1 21 -5 3 -7 17 -4 30 3 12 1 26 -6 30 -8 5 -8 10 1 21 9 11 9 17 -1 29 -9 10 -9 15 -1 15 6 0 11 11 11 25 0 14 5 25 10 25 6 0 10 10 10 22 0 12 3 19 6 15 11 -10 36 22 30 38 -4 11 2 15 19 15 19 0 25 5 25 22 0 17 3 19 12 10 18 -18 53 15 36 35 -8 10 -9 16 -1 21 6 4 14 24 18 45 4 21 13 37 21 37 8 0 14 5 14 10 0 6 7 10 15 10 8 0 15 5 15 11 0 8 4 8 15 -1 8 -6 18 -9 22 -7z" id="path421" />
      <path d="M9880 1065 l0 -425 1225 0 1225 0 0 425 0 425 -1225 0 -1225 0 0 -425z m2420 0 l0 -395 -1195 0 -1195 0 0 395 0 395 1195 0 1195 0 0 -395z" id="path423" />
      <path d="M10223 1405 c-182 -49 -295 -238 -250 -419 21 -86 73 -164 140 -209 128 -87 276 -87 404 -1 88 60 153 182 153 289 0 154 -115 300 -266 340 -70 18 -112 18 -181 0z" id="path425" style="fill:#ff0000;fill-opacity:1" />
      <path d="m 11013,1405 c -182,-49 -295,-238 -250,-419 21,-86 73,-164.00004 140,-209.00004 128,-87 276,-87 404,-1 88,60 153,182.00004 153,289.00004 0,154 -115,300 -266,340 -70,18 -112,18 -181,0 z" id="path425-7" style="fill:#ffff00;fill-opacity:1" />
      <path d="m 11803,1405 c -182,-49 -295,-238 -250,-419 21,-85.99998 73,-163.99998 140,-208.99998 128,-87 276,-87 404,-1 88,60 153,182 153,288.99998 0,154 -115,300 -266,340 -70,18 -112,18 -181,0 z" id="path425-4" style="fill:#00ff00;fill-opacity:1" />
      <path d="M11013 1405 c-182 -49 -295 -238 -250 -419 39 -160 183 -276 342 -276 186 0 355 169 355 355 0 154 -115 300 -266 340 -70 18 -112 18 -181 0z m220 -44 c65 -28 131 -93 164 -160 39 -79 40 -191 2 -271 -33 -70 -89 -126 -159 -159 -75 -36 -190 -37 -267 -2 -62 28 -136 103 -166 169 -33 72 -30 189 6 263 43 89 122 153 222 180 46 12 145 2 198 -20z" id="path427" />
      <path d="M 10223,1405 C 10041,1356 9928.0001,1167 9973.0001,986 10012,826 10156,710 10315,710 c 186,0 355,169 355,355 0,154 -115,300 -266,340 -70,18 -112,18 -181,0 z m 220,-44 c 65,-28 131,-93 164,-160 39,-79 40,-191 2,-271 -33,-70 -89,-126 -159,-159 -75,-36 -190,-37 -267,-2 -62,28 -136,103 -166,169 -32.9999,72 -29.9999,189 6,263 43,89 122,153 222,180 46,12 145,2 198,-20 z" id="path427-9" />
      <path d="M11803 1405 c-182 -49 -295 -238 -250 -419 39 -160 183 -276 342 -276 186 0 355 169 355 355 0 154 -115 300 -266 340 -70 18 -112 18 -181 0z m220 -45 c90 -40 142 -101 182 -215 48 -133 -37 -312 -180 -377 -71 -32 -189 -32 -262 1 -62 28 -136 103 -166 169 -29 65 -30 188 0 253 75 165 265 240 426 169z" id="path429" />
      <path d="m 7562,7995 c -169,-37 -340,-171 -416,-325 -87,-178 -87,-372 0,-550 51,-104 170,-223 274,-274 240,-117 523,-71 708,115 188,190 234,468 116,709 -51,104 -170,223 -274,274 -128,62 -272,80 -408,51 z m 261,-34 c 6,-6 23,-11 38,-11 15,0 31,-4 34,-10 3,-5 14,-10 24,-10 10,0 24,-7 31,-15 7,-8 21,-15 31,-15 11,0 19,-4 19,-10 0,-5 6,-10 14,-10 35,0 186,-166 186,-204 0,-8 7,-19 15,-26 8,-7 15,-21 15,-31 0,-10 5,-21 10,-24 6,-3 10,-19 10,-35 0,-15 6,-30 13,-32 9,-4 12,-39 12,-133 0,-94 -3,-129 -12,-132 -7,-3 -13,-18 -13,-33 0,-16 -4,-32 -10,-35 -5,-3 -10,-14 -10,-24 0,-10 -7,-24 -15,-31 -8,-7 -15,-18 -15,-26 0,-38 -151,-204 -186,-204 -8,0 -14,-4 -14,-10 0,-5 -8,-10 -19,-10 -10,0 -24,-7 -31,-15 -7,-8 -21,-15 -31,-15 -10,0 -21,-4 -24,-10 -3,-5 -19,-10 -35,-10 -15,0 -30,-6 -32,-12 -6,-17 -235,-18 -269,-2 -13,7 -44,18 -68,25 -24,7 -49,19 -57,26 -7,7 -18,13 -24,13 -6,0 -31,13 -54,29 -142,98 -246,299 -246,476 0,177 104,378 246,476 23,16 50,29 58,29 9,0 16,4 16,9 0,9 53,29 130,51 25,7 50,14 55,16 22,8 197,-4 208,-15 z" id="path347-9" />
      <path d="m 10213,11125 c -182,-49 -295,-238 -250,-419 39,-160 183,-276 342,-276 186,0 355,169 355,355 0,154 -115,300 -266,340 -70,18 -112,18 -181,0 z m 220,-44 c 65,-28 131,-93 164,-160 39,-79 40,-191 2,-271 -33,-70 -89,-126 -159,-159 -75,-36 -190,-37 -267,-2 -62,28 -136,103 -166,169 -33,72 -30,189 6,263 43,89 122,153 222,180 46,12 145,2 198,-20 z" id="path315-6" />
      <rect style="fill:#c0c0c0;fill-opacity:1;stroke:#808080;stroke-width:7.64707;stroke-opacity:1" id="rect2651" width="231" height="210" x="11844" y="-9505" transform="scale(1,-1)" />
      <rect style="fill:#c0c0c0;fill-opacity:1;stroke:#808080;stroke-width:7.64707;stroke-opacity:1" id="rect2651-7" width="231" height="210" x="8655" y="-9505" transform="scale(1,-1)" />
      <rect style="fill:#c0c0c0;fill-opacity:1;stroke:#808080;stroke-width:7.64707;stroke-opacity:1" id="rect2651-77" width="231" height="210" x="11844" y="-8835" transform="scale(1,-1)" />
      <rect style="fill:#c0c0c0;fill-opacity:1;stroke:#808080;stroke-width:7.64707;stroke-opacity:1" id="rect2651-9" width="231" height="210" x="8654" y="-8835" transform="scale(1,-1)" />
      <rect style="fill:#c0c0c0;fill-opacity:1;stroke:#808080;stroke-width:7.64707;stroke-opacity:1" id="rect2651-2" width="231" height="210" x="8655" y="-8165" transform="scale(1,-1)" />
      <rect style="fill:#c0c0c0;fill-opacity:1;stroke:#808080;stroke-width:7.64707;stroke-opacity:1" id="rect2651-20" width="231" height="210" x="11844" y="-8165" transform="scale(1,-1)" />
      <rect style="fill:#c0c0c0;fill-opacity:1;stroke:#808080;stroke-width:7.64707;stroke-opacity:1" id="rect2651-0" width="231" height="210" x="11844" y="-6825" transform="scale(1,-1)" />
      <rect style="fill:#c0c0c0;fill-opacity:1;stroke:#808080;stroke-width:7.64707;stroke-opacity:1" id="rect2651-1" width="231" height="210" x="11844" y="-7495" transform="scale(1,-1)" />
      <rect style="fill:#c0c0c0;fill-opacity:1;stroke:#808080;stroke-width:7.64707;stroke-opacity:1" id="rect2651-8" width="231" height="210" x="8654" y="-7495" transform="scale(1,-1)" />
      <rect style="fill:#c0c0c0;fill-opacity:1;stroke:#808080;stroke-width:7.64707;stroke-opacity:1" id="rect2651-6" width="231" height="210" x="8654" y="-6825" transform="scale(1,-1)" />
      <rect style="fill:#c0c0c0;fill-opacity:1;stroke:#808080;stroke-width:7.64707;stroke-opacity:1" id="rect2651-87" width="231" height="210" x="8664" y="-6155" transform="scale(1,-1)" />
      <rect style="fill:#c0c0c0;fill-opacity:1;stroke:#808080;stroke-width:7.64707;stroke-opacity:1" id="rect2651-770" width="231" height="210" x="11854" y="-6155" transform="scale(1,-1)" />
      <rect style="fill:#c0c0c0;fill-opacity:1;stroke:#808080;stroke-width:7.64707;stroke-opacity:1" id="rect2651-3" width="231" height="210" x="11854" y="-5485" transform="scale(1,-1)" />
      <rect style="fill:#c0c0c0;fill-opacity:1;stroke:#808080;stroke-width:7.64707;stroke-opacity:1" id="rect2651-67" width="231" height="210" x="11854" y="-4815" transform="scale(1,-1)" />
      <rect style="fill:#c0c0c0;fill-opacity:1;stroke:#808080;stroke-width:7.64707;stroke-opacity:1" id="rect2651-09" width="231" height="210" x="11854" y="-4145" transform="scale(1,-1)" />
      <rect style="fill:#c0c0c0;fill-opacity:1;stroke:#808080;stroke-width:7.64707;stroke-opacity:1" id="rect2651-01" width="231" height="210" x="8664" y="-5485" transform="scale(1,-1)" />
      <rect style="fill:#c0c0c0;fill-opacity:1;stroke:#808080;stroke-width:7.64707;stroke-opacity:1" id="rect2651-5" width="231" height="210" x="8664" y="-4815" transform="scale(1,-1)" />
      <rect style="fill:#c0c0c0;fill-opacity:1;stroke:#808080;stroke-width:7.64707;stroke-opacity:1" id="rect2651-4" width="231" height="210" x="8664" y="-4145" transform="scale(1,-1)" />
      <rect style="fill:#c0c0c0;fill-opacity:1;stroke:#808080;stroke-width:7.64707;stroke-opacity:1" id="rect2651-02" width="231" height="210" x="8664" y="-3475" transform="scale(1,-1)" />
      <rect style="fill:#c0c0c0;fill-opacity:1;stroke:#808080;stroke-width:7.64707;stroke-opacity:1" id="rect2651-80" width="231" height="210" x="8664" y="-2805" transform="scale(1,-1)" />
      <rect style="fill:#c0c0c0;fill-opacity:1;stroke:#808080;stroke-width:7.64707;stroke-opacity:1" id="rect2651-801" width="231" height="210" x="11854" y="-3475" transform="scale(1,-1)" />
      <rect style="fill:#c0c0c0;fill-opacity:1;stroke:#808080;stroke-width:7.64707;stroke-opacity:1" id="rect2651-00" width="231" height="210" x="11854" y="-2805" transform="scale(1,-1)" />
      <rect style="fill:#ffffff;fill-opacity:0;stroke:#ffffff;stroke-width:200.001;stroke-miterlimit:4;stroke-dasharray:none;stroke-opacity:1" id="rect4637" width="20016.312" height="11962.162" x="-46.292843" y="-11943.673" transform="scale(1,-1)" />
   </g>
</svg>
